<?xml version="1.0" encoding="UTF-8"?>
<!DOCTYPE svg PUBLIC "-//W3C//DTD SVG 1.1//EN" "http://www.w3.org/Graphics/SVG/1.1/DTD/svg11.dtd">
<!-- Creator: CorelDRAW X6 -->
<svg xmlns="http://www.w3.org/2000/svg" xml:space="preserve" width="11.1111in" height="11.1111in" version="1.1" style="shape-rendering:geometricPrecision; text-rendering:geometricPrecision; image-rendering:optimizeQuality; fill-rule:evenodd; clip-rule:evenodd"
viewBox="0 0 11111 11111"
 xmlns:xlink="http://www.w3.org/1999/xlink">
 <defs>
  <style type="text/css">
   <![CDATA[
    .fil1 {fill:#1C2E5A}
    .fil3 {fill:#A9A8A8}
    .fil2 {fill:#E50013}
    .fil4 {fill:#ED7400}
    .fil0 {fill:white}
   ]]>
  </style>
 </defs>
 <g id="Layer_x0020_1">
  <metadata id="CorelCorpID_0Corel-Layer"/>

  <path class="fil1" d="M5053 4846c-72,-571 308,-838 803,-1153 608,-387 1387,-821 1596,-1217 251,1162 -2257,1882 -2399,2370z"/>
  <path class="fil2" d="M5099 5522c-119,-612 498,-828 1115,-1176 533,-301 1086,-670 1231,-968 226,1224 -2206,1662 -2346,2144z"/>
  <path class="fil3" d="M5099 5522c59,260 419,347 657,481 318,179 647,399 733,576 201,-853 -863,-895 -1158,-1295 -125,81 -210,159 -233,238z"/>
  <path class="fil4" d="M5025 5685c-272,-106 -1273,-297 -1077,-91 -336,-94 -282,-230 25,-322 125,-241 726,-206 1080,-427 41,217 -817,323 -28,840z"/>
  <path class="fil0" d="M4039 5260c29,-41 74,-65 131,-82l-50 68 -81 13z"/>
 </g>
</svg>
